<?xml version="1.0" standalone="no"?>
<!DOCTYPE svg PUBLIC "-//W3C//DTD SVG 1.1//EN" "http://www.w3.org/Graphics/SVG/1.1/DTD/svg11.dtd">
<svg xmlns="http://www.w3.org/2000/svg">
<defs >
<font id="PoiretOne" horiz-adv-x="426" ><font-face
    font-family="Poiret One"
    units-per-em="1000"
    panose-1="2 0 0 0 0 0 0 0 0 0"
    ascent="962"
    descent="-208"
    alphabetic="0" />
<glyph unicode=" " glyph-name="space" horiz-adv-x="350" />
<glyph unicode="!" glyph-name="exclam" horiz-adv-x="226" d="M98 750H131V100H98V750ZM80 -7T80 24T113 55T146 24T113 -7Z" />
<glyph unicode="&quot;" glyph-name="quotedbl" horiz-adv-x="275" d="M70 631V810H103V631H70ZM172 631V810H205V631H172Z" />
<glyph unicode="#" glyph-name="numbersign" horiz-adv-x="672" d="M15 496H270L381 748H414L303 496H488L599 748H632L521 496H657V465H507L439 312H657V281H426L302 0H270L394 281H208L84 0H53L176 281H15V312H190L257 465H15V496ZM290 465L222 312H407L475 465H290Z" />
<glyph unicode="$" glyph-name="dollar" horiz-adv-x="507" d="M159 455T116 494T73 600T122 709T234 759V815H265V759Q348 753 399 692V644Q382 676 344 700T265 730V444Q304 427 326 417T380 385T429 344Q472 292 472 221Q472 131 412 66T265 -12V-73H234V-14Q172
-12 119 16T35 89V141Q61 88 116 53T234 15V422Q159 455 116 494ZM384 342Q339 378 265 410V17Q339 29 390 85T441 219T384 342ZM183 721T145 685T106 597T139 516T234 456V730Q183 721 145 685Z" />
<glyph unicode="%" glyph-name="percent" horiz-adv-x="692" d="M511 -11H501Q437 -11 390 38T343 153T391 267T507 315T624 267T672 153T625 38T511 -11ZM640 205T601 245T508 286T415 246T375 152T415 58T508 18T600 58T640 151ZM188 435H178Q113 435 67 484T20
599T67 713T183 761T299 713T347 599T300 484T188 435ZM238 732T184 732T90 692T50 598T90 504T184 464T276 503T315 597T277 691ZM592 750H631L72 0H35L592 750Z" />
<glyph unicode="&amp;" glyph-name="ampersand" horiz-adv-x="696" d="M35 238Q35 318 84 385T213 476Q176 494 152 531T128 609Q128 672 173 716T286 760T400 708V655Q386 688 353 710T277 732T197 696T160 610T196 525T283 488H297V460H289Q199 460 133 394T66
237T132 81T289 15T446 80T512 237V460H373V488H681V460H542V0H512V128Q490 68 427 27T289 -14Q184 -14 110 60T35 238Z" />
<glyph unicode="&apos;" glyph-name="quotesingle" horiz-adv-x="183" d="M75 632V810H108V632H75Z" />
<glyph unicode="(" glyph-name="parenleft" horiz-adv-x="333" d="M205 0T145 119T85 367T144 615T308 818V782Q118 608 118 365Q118 245 168 139T308 -48V-87Q205 0 145 119Z" />
<glyph unicode=")" glyph-name="parenright" horiz-adv-x="334" d="M133 728T191 613T249 367T189 118T25 -86V-48Q116 32 166 138T216 365T166 592T25 779V809L29 811Q133 728 191 613Z" />
<glyph unicode="*" glyph-name="asterisk" horiz-adv-x="313" d="M146 745H171V654L240 725L261 705L191 635H278V609H191L260 542L238 521L171 590V501H146V591L77 521L56 542L125 609H35V635H126L55 705L75 725L146 654V745Z" />
<glyph unicode="+" glyph-name="plus" horiz-adv-x="341" d="M155 387H15V418H155V557H188V418H326V387H188V253H155V387Z" />
<glyph unicode="," glyph-name="comma" horiz-adv-x="139" d="M66 -63V-7Q35 -7 35 24T69 55T104 24Q104 17 101 8L70 -63H66Z" />
<glyph unicode="-" glyph-name="hyphen" horiz-adv-x="391" d="M351 387H40V418H351V387Z" />
<glyph unicode="." glyph-name="period" horiz-adv-x="139" d="M35 -7T35 24T69 55T104 24T70 -7Z" />
<glyph unicode="/" glyph-name="slash" horiz-adv-x="646" d="M582 748H621L62 0H25L582 748Z" />
<glyph unicode="0" glyph-name="zero" horiz-adv-x="856" d="M435 -13H420Q265 -13 153 103T40 375T154 646T428 761T702 647T816 373Q816 272 765 183T626 41T435 -13ZM783 521T679 626T428 732T177 627T73 374T177 121T427 16T678 121T783 373Z" />
<glyph unicode="1" glyph-name="one" horiz-adv-x="241" d="M133 0V719H15V748H166V0H133Z" />
<glyph unicode="2" glyph-name="two" horiz-adv-x="637" d="M556 480Q556 581 490 656T315 731T134 653T61 462H30Q30 589 112 674T316 759T514 676T589 479Q589 314 412 203L140 33H586V0H36L385 221Q556 329 556 480Z" />
<glyph unicode="3" glyph-name="three" horiz-adv-x="589" d="M544 242Q544 137 469 64T287 -10T106 61T30 231V252H61V236Q61 145 126 82T285 18T444 81T511 237Q511 300 478 359T390 441L371 449L389 463Q415 483 429 515T444 582Q444 643 399 688T290 733T179
687T129 575H97Q99 652 154 706T288 761T421 710T476 586T423 454Q478 421 511 365T544 242Z" />
<glyph unicode="4" glyph-name="four" horiz-adv-x="490" d="M355 0V91H17L388 760V124H475V91H388V0H355ZM355 124V645L66 124H355Z" />
<glyph unicode="5" glyph-name="five" horiz-adv-x="649" d="M521 750V721H140L113 464Q148 509 203 533T319 557Q438 557 521 474T604 273T521 73T319 -10Q224 -10 146 50T45 202H76Q100 122 168 70T319 18Q424 18 498 92T572 272T498 453T319 529Q257 529 202
499T111 416H76L111 750H521Z" />
<glyph unicode="6" glyph-name="six" horiz-adv-x="631" d="M324 555Q434 555 517 470T601 269T517 71T316 -12T116 70T33 267T134 499L353 750H391L193 523Q210 536 249 545T324 555ZM64 165T138 91T315 16T492 90T565 270T492 451T316 527T139 451T64 270Z" />
<glyph unicode="7" glyph-name="seven" horiz-adv-x="535" d="M20 748H515L129 0H92L463 719H20V748Z" />
<glyph unicode="8" glyph-name="eight" horiz-adv-x="569" d="M435 609Q435 568 413 533T353 478Q434 458 486 389T539 238Q539 134 465 60T285 -14T105 60T30 238Q30 318 80 385T210 476Q173 494 149 531T125 609Q125 672 170 716T279 760T389 716T435 609ZM230
732T194 696T157 610T193 525T279 488T366 524T403 610T366 695T280 732ZM63 146T128 81T285 15T441 80T506 237T441 394T286 460T129 394T63 237Z" />
<glyph unicode="9" glyph-name="nine" horiz-adv-x="631" d="M305 195Q194 195 111 279T28 480T112 679T313 762T513 680T596 482T495 251L276 0H238L436 227Q419 214 380 205T305 195ZM565 585T491 659T314 734T137 660T64 480T137 299T313 223T490 299T565 480Z" />
<glyph unicode=":" glyph-name="colon" horiz-adv-x="237" d="M85 -7T85 24T118 55T152 24T119 -7ZM85 261T85 292T118 323T152 292T119 261Z" />
<glyph unicode=";" glyph-name="semicolon" horiz-adv-x="239" d="M85 261T85 292T119 323T154 292T120 261ZM116 -63V-7Q85 -7 85 24T119 55T154 24Q154 17 151 8L120 -63H116Z" />
<glyph unicode="&lt;" glyph-name="less" horiz-adv-x="408" d="M75 444L388 626V588L117 429L388 269V229L75 414V444Z" />
<glyph unicode="=" glyph-name="equal" horiz-adv-x="411" d="M361 461H50V492H361V461ZM361 333H50V362H361V333Z" />
<glyph unicode="&gt;" glyph-name="greater" horiz-adv-x="408" d="M75 626L388 443V414L75 229V269L346 429L75 588V626Z" />
<glyph unicode="?" glyph-name="question" horiz-adv-x="646" d="M45 511Q51 622 121 692T302 762T487 689T561 520T490 335Q421 267 322 261V96H290V290H304Q404 290 466 356T529 514T464 670T301 733T144 673T79 511H45ZM274 -7T274 24T308 55T343 24T309 -7Z" />
<glyph unicode="@" glyph-name="at" horiz-adv-x="880" d="M447 -13H432Q277 -13 164 104T50 377T165 648T441 763T716 649T830 378T717 104T447 -13ZM797 523T693 628T441 734T188 629T83 376T188 122T440 16T692 122T797 375ZM676 600V150H644V255Q612 201 557
170T440 139Q342 139 272 208T202 375T272 541T440 611Q502 611 557 580T644 495V600H676ZM234 290T295 229T441 167T586 228T646 374T586 521T441 583T296 521T234 374Z" />
<glyph unicode="A" glyph-name="A" horiz-adv-x="809" d="M404 768L779 0H744L602 286H201L61 0H30L404 768ZM401 699L214 315H590L401 699Z" />
<glyph unicode="B" glyph-name="B" horiz-adv-x="387" d="M75 750H107Q172 750 216 710T260 606Q260 568 236 529T178 477Q255 458 306 395T357 237T284 71T107 0H75V750ZM107 459V28H115Q201 28 263 92T326 244T264 395T115 459H107ZM107 722V486H115Q160 486
194 522T229 606T195 688T115 722H107Z" />
<glyph unicode="C" glyph-name="C" horiz-adv-x="698" d="M440 -11H429Q326 -11 237 43T97 186T45 377Q45 536 160 650T435 765Q542 765 638 709V672Q544 736 435 736Q288 736 183 631T78 378T183 124T435 18Q544 18 638 82V45Q547 -11 440 -11Z" />
<glyph unicode="D" glyph-name="D" horiz-adv-x="526" d="M75 750H107Q275 750 378 640T481 375T379 110T107 0H75V750ZM115 720H107V31H115Q261 31 354 132T448 374T355 618T115 720Z" />
<glyph unicode="E" glyph-name="E" horiz-adv-x="369" d="M75 750H344V721H108V313H305V284H108V29H344V0H75V750Z" />
<glyph unicode="F" glyph-name="F" horiz-adv-x="367" d="M75 750H342V721H108V315H303V286H108V0H75V750Z" />
<glyph unicode="G" glyph-name="G" horiz-adv-x="693" d="M357 286V315H638V44Q550 -11 440 -11H429Q326 -11 237 43T97 186T45 377Q45 536 160 650T435 765Q542 765 638 709V672Q544 736 435 736Q288 736 183 631T78 378T183 124T435 18Q517 18 605 60V286H357Z" />
<glyph unicode="H" glyph-name="H" horiz-adv-x="730" d="M622 750H655V0H622V286H108V0H75V750H108V315H622V750Z" />
<glyph unicode="I" glyph-name="I" horiz-adv-x="193" d="M80 750H113V0H80V750Z" />
<glyph unicode="J" glyph-name="J" horiz-adv-x="467" d="M174 721V750H392V230Q392 121 333 53T177 -15H167Q87 -15 20 42V83Q83 14 171 14T309 73T359 226V721H174Z" />
<glyph unicode="K" glyph-name="K" horiz-adv-x="572" d="M75 750H107V475L424 750H464L121 451L552 0H508L108 417V0H75V750Z" />
<glyph unicode="L" glyph-name="L" horiz-adv-x="360" d="M108 750V29H340V0H75V750H108Z" />
<glyph unicode="M" glyph-name="M" horiz-adv-x="919" d="M844 750V0H811V711L457 -14L105 711V0H75V750H123L460 58L798 750H844Z" />
<glyph unicode="N" glyph-name="N" horiz-adv-x="731" d="M627 750H656V-11L104 668V0H75V761L627 83V750Z" />
<glyph unicode="O" glyph-name="O" horiz-adv-x="870" d="M272 -13T159 104T45 377T160 648T436 763T711 649T825 378T712 104T442 -13H427Q272 -13 159 104ZM792 523T688 628T436 734T183 629T78 376T183 122T435 16T687 122T792 375Z" />
<glyph unicode="P" glyph-name="P" horiz-adv-x="390" d="M74 750H107Q211 750 284 679T357 510T282 343T115 273H107V0H74V750ZM107 301H115Q199 301 261 363T324 510T261 658T115 721H107V301Z" />
<glyph unicode="Q" glyph-name="Q" horiz-adv-x="870" d="M825 376Q825 287 784 206T673 69L754 -12H710L648 50Q553 -12 440 -12H429Q326 -12 237 42T97 185T45 376Q45 535 160 649T436 764T711 650T825 376ZM435 17Q536 17 626 72L453 243H496L650 91Q714 142
753 218T792 376Q792 524 688 629T436 735T183 630T78 377T183 123T435 17Z" />
<glyph unicode="R" glyph-name="R" horiz-adv-x="407" d="M75 750H118Q215 750 288 679T362 511T287 343T126 272H119L377 0H334L107 238V0H75V750ZM107 301H125Q206 301 268 363T330 510T266 658T120 721H107V301Z" />
<glyph unicode="S" glyph-name="S" horiz-adv-x="498" d="M354 686T315 710T226 734T143 704T108 620V615Q108 552 178 500Q208 478 245 457T320 411T388 359T438 291T458 203V193Q458 98 394 42T234 -14Q109 -14 40 89V143Q66 86 116 51T242 15T372 63T427 191V197Q427
247 401 288T336 356T251 412T166 466T101 529T75 612V619Q75 689 120 726T231 763Q323 763 377 695V644Q354 686 315 710Z" />
<glyph unicode="T" glyph-name="T" horiz-adv-x="417" d="M397 750V721H226V0H193V721H20V750H397Z" />
<glyph unicode="U" glyph-name="U" horiz-adv-x="597" d="M304 -14H294Q202 -14 139 50T75 211V750H108V212Q108 127 163 71T299 15T434 70T489 212V750H522V213Q522 115 459 51T304 -14Z" />
<glyph unicode="V" glyph-name="V" horiz-adv-x="786" d="M393 -17L20 750H56L396 55L734 750H766L393 -17Z" />
<glyph unicode="W" glyph-name="W" horiz-adv-x="1023" d="M349 -13L20 750H57L354 63L493 388L338 750H374L513 421L656 750H684L528 389L670 60L973 750H1000L667 -13L508 353L349 -13Z" />
<glyph unicode="X" glyph-name="X" horiz-adv-x="483" d="M419 750L258 420L463 0H426L239 385L51 0H20L223 419L58 750H96L242 453L387 750H419Z" />
<glyph unicode="Y" glyph-name="Y" horiz-adv-x="524" d="M281 0H248V300L20 750H56L267 335L474 750H504L281 300V0Z" />
<glyph unicode="Z" glyph-name="Z" horiz-adv-x="427" d="M402 29V0H25L355 721H25V750H405L74 29H402Z" />
<glyph unicode="[" glyph-name="bracketleft" horiz-adv-x="215" d="M105 787V-54H200V-83H72V816H200V787H105Z" />
<glyph unicode="\" glyph-name="backslash" horiz-adv-x="646" d="M25 748H63L621 0H583L25 748Z" />
<glyph unicode="]" glyph-name="bracketright" horiz-adv-x="215" d="M112 -54V787H15V816H145V-83H15V-54H112Z" />
<glyph unicode="^" glyph-name="asciicircum" horiz-adv-x="330" d="M177 679L315 540H274L166 648L57 540H15L155 679H177Z" />
<glyph unicode="_" glyph-name="underscore" horiz-adv-x="358" d="M333 0H25V31H333V0Z" />
<glyph unicode="`" glyph-name="grave" horiz-adv-x="211" d="M15 644H56L196 529H154L15 644Z" />
<glyph unicode="a" glyph-name="a" horiz-adv-x="569" d="M509 450V0H477V112Q449 55 393 22T273 -11Q175 -11 105 58T35 225T105 391T273 461Q337 461 395 427T477 337V450H509ZM67 140T128 79T274 17T419 78T479 224T419 371T274 433T129 371T67 224Z" />
<glyph unicode="b" glyph-name="b" horiz-adv-x="569" d="M60 0V750H92V340Q119 395 176 428T296 461Q395 461 464 392T534 225T465 59T296 -11Q236 -11 179 21T92 109V0H60ZM90 140T151 79T297 17T442 78T502 224T442 371T297 433T152 371T90 224Z" />
<glyph unicode="c" glyph-name="c" horiz-adv-x="476" d="M278 -13H269Q173 -13 104 58T35 224T105 389T277 459T451 382V331Q420 377 373 404T273 431Q190 431 129 370T67 223T128 77T273 15Q325 15 372 42T451 116V64Q381 -13 278 -13Z" />
<glyph unicode="d" glyph-name="d" horiz-adv-x="569" d="M509 750V0H477V109Q447 54 390 22T273 -11Q174 -11 105 58T35 225T104 391T273 461Q335 461 392 428T477 340V750H509ZM67 140T127 79T271 17T417 78T479 224T418 370T272 433T128 371T67 225Z" />
<glyph unicode="e" glyph-name="e" horiz-adv-x="495" d="M285 -12H276Q181 -12 111 59T40 226T110 390T283 460T460 378L146 68Q211 16 271 16T378 43T457 117V66Q386 -12 285 -12ZM195 432T134 371T72 229T125 89L416 378Q354 432 275 432Z" />
<glyph unicode="f" glyph-name="f" horiz-adv-x="252" d="M231 632V604Q173 604 133 564T92 463V200H232V172H92V0H60V463Q60 537 110 584T231 632Z" />
<glyph unicode="g" glyph-name="g" horiz-adv-x="570" d="M478 450H510V42Q510 -74 446 -141T278 -208Q221 -208 167 -182T83 -114V-68Q109 -116 164 -148T278 -180Q366 -180 422 -121T478 42V109Q451 54 393 21T273 -12Q175 -12 105 57T35 224T105 390T273 460Q338
460 394 428T478 338V450ZM67 139T128 78T274 16T419 77T479 224T419 370T275 432T129 371T67 224Z" />
<glyph unicode="h" glyph-name="h" horiz-adv-x="514" d="M92 0H60V749H92V363Q142 461 265 461Q349 461 406 403T464 262V0H432V262Q432 332 383 382T265 433T144 382T92 262V0Z" />
<glyph unicode="i" glyph-name="i" horiz-adv-x="178" d="M105 449V0H73V449H105ZM60 559T60 586T89 613T118 586T89 559Z" />
<glyph unicode="j" glyph-name="j" horiz-adv-x="242" d="M-5 -198V-170Q54 -170 95 -130T136 -29V450H168V-29Q168 -103 118 -150T-5 -198ZM124 559T124 586T153 613T182 586T153 559Z" />
<glyph unicode="k" glyph-name="k" horiz-adv-x="388" d="M60 748H92V294L270 450H311L105 270L363 0H320L92 237V0H60V748Z" />
<glyph unicode="l" glyph-name="l" horiz-adv-x="251" d="M231 19V-9Q160 -9 110 38T60 160V750H92V160Q92 99 132 59T231 19Z" />
<glyph unicode="m" glyph-name="m" horiz-adv-x="746" d="M387 403T429 432T533 461T640 417T686 298V0H654V298Q654 356 616 394T525 433T430 393T388 300V0H356V300Q356 354 318 393T226 433T132 393T92 300V0H60V450H92V387Q112 417 151 439T233 461T315 432T372
355Q387 403 429 432Z" />
<glyph unicode="n" glyph-name="n" horiz-adv-x="524" d="M92 0H60V450H92V359Q143 461 266 461Q350 461 407 403T464 262V0H432V262Q432 331 384 382T266 433T145 382T92 262V0Z" />
<glyph unicode="o" glyph-name="o" horiz-adv-x="546" d="M173 -11T104 60T35 227T105 391T273 461T441 392T511 227T443 60T278 -11H269Q173 -11 104 60ZM479 309T419 371T274 433T129 371T67 224T128 79T274 17T419 78T479 224Z" />
<glyph unicode="p" glyph-name="p" horiz-adv-x="569" d="M60 -200V450H92V340Q119 395 176 428T296 461Q395 461 464 392T534 225T465 59T296 -11Q236 -11 179 21T92 109V-200H60ZM90 140T151 79T297 17T442 78T502 224T442 371T297 433T152 371T90 224Z" />
<glyph unicode="q" glyph-name="q" horiz-adv-x="569" d="M509 450V-200H477V112Q449 55 393 22T273 -11Q175 -11 105 58T35 225T105 391T273 461Q337 461 395 427T477 337V450H509ZM67 140T128 79T274 17T419 78T479 224T419 371T274 433T129 371T67 224Z" />
<glyph unicode="r" glyph-name="r" horiz-adv-x="348" d="M279 433T226 433T133 393T92 300V0H60V450H92V383Q110 417 148 439T233 461T323 429V389Q279 433 226 433Z" />
<glyph unicode="s" glyph-name="s" horiz-adv-x="344" d="M158 434Q132 434 112 417T92 375T114 329T168 291T232 253T286 202T309 131Q309 72 265 31T157 -11Q117 -11 83 6T32 53V101Q70 17 154 17Q206 17 241 49T277 120T255 187T200 233T137 270T83 315T60
377T88 437T162 462T239 427V386Q207 434 158 434Z" />
<glyph unicode="t" glyph-name="t" horiz-adv-x="241" d="M221 22V-6Q150 -6 100 41T50 163V631H82V449H220V421H82V163Q82 102 122 62T221 22Z" />
<glyph unicode="u" glyph-name="u" horiz-adv-x="504" d="M422 450H454V0H422V91Q371 -11 248 -11Q164 -11 107 47T50 188V450H82V188Q82 119 130 68T248 17T369 68T422 188V450Z" />
<glyph unicode="v" glyph-name="v" horiz-adv-x="493" d="M439 450H468L247 -13L25 450H60L250 55L439 450Z" />
<glyph unicode="w" glyph-name="w" horiz-adv-x="684" d="M25 450H58L243 57L330 240L233 448H265L346 271L429 450H459L361 240L447 55L630 449H659L446 -11L344 208L241 -11L25 450Z" />
<glyph unicode="x" glyph-name="x" horiz-adv-x="433" d="M232 273L413 0H376L214 245L53 0H21L198 270L79 450H116L216 298L316 450H348L232 273Z" />
<glyph unicode="y" glyph-name="y" horiz-adv-x="504" d="M422 450H454V14Q454 -75 392 -137T240 -199Q132 -199 69 -116L71 -66Q99 -114 144 -142T240 -171Q314 -171 368 -118T422 11V87Q373 -11 251 -11Q168 -11 109 47T50 188V450H82V188Q82 119 132 68T252
17T371 68T422 188V450Z" />
<glyph unicode="z" glyph-name="z" horiz-adv-x="363" d="M335 28V0H25L281 422H52V450H338L81 28H335Z" />
<glyph unicode="{" glyph-name="braceleft" horiz-adv-x="257" d="M167 667V506Q167 467 150 432T100 375Q167 331 167 246V77Q167 37 186 5T237 -45V-75Q192 -54 163 -12T134 77V246Q134 290 105 326T34 375Q76 387 105 424T134 506V667Q134 714 163 754T237
817V787Q205 771 186 739T167 667Z" />
<glyph unicode="|" glyph-name="bar" horiz-adv-x="183" d="M75 0V748H108V0H75Z" />
<glyph unicode="}" glyph-name="braceright" horiz-adv-x="257" d="M125 667V506Q125 463 154 425T223 375Q183 363 154 327T125 246V77Q125 31 95 -12T20 -75V-45Q92 -6 92 77V246Q92 332 158 375Q127 395 110 431T92 506V667Q92 707 73 739T20 787V817Q66 795
95 755T125 667Z" />
<glyph unicode="~" glyph-name="asciitilde" horiz-adv-x="533" d="M458 360Q418 314 378 314T270 350T164 386Q115 382 75 316V367Q114 411 163 415Q210 415 275 379T379 343T458 408V360Z" />
<glyph unicode="&#xa1;" glyph-name="exclamdown" horiz-adv-x="226" d="M131 0H98V650H131V0ZM80 695T80 726T113 757T146 726T113 695Z" />
<glyph unicode="&#xa2;" glyph-name="cent" horiz-adv-x="541" d="M286 -155V-9H282Q176 -9 113 60T50 224T111 387T281 456H286V564H320V456H325Q437 456 506 382V331Q475 376 427 402T325 428H320V19H325Q379 19 427 45T506 116V64Q474 29 426 10T324 -9H320V-155H286ZM286
428H281Q187 428 136 368T85 223T136 79T281 19H286V428Z" />
<glyph unicode="&#xa3;" glyph-name="sterling" horiz-adv-x="529" d="M177 312H379V284H178V101Q225 101 290 65T394 29T473 94H509Q450 -2 392 -2Q352 -2 285 34T178 71H145Q96 67 56 0H20Q70 93 145 101V284H53V312H145V548Q145 639 195 698T326 758H335Q403
758 460 708V673Q436 700 401 716T330 733Q258 733 218 681T177 548V312Z" />
<glyph unicode="&#xa4;" glyph-name="currency" horiz-adv-x="843" d="M159 664Q268 761 417 761T682 658L771 748L793 722L706 635Q808 518 808 372T708 113L793 30L769 5L686 88Q569 -12 418 -12T161 88L75 2L51 27L136 113Q35 221 35 371T135 640L50 723L75
749L159 664ZM575 728T425 728T172 625T69 371T172 120T418 20T669 123T777 377T676 627Z" />
<glyph unicode="&#xa5;" glyph-name="yen" horiz-adv-x="534" d="M424 174H286V0H253V174H113V203H253V302H113V333H236L25 750H60L271 335L478 750H509L302 333H424V302H286V203H424V174Z" />
<glyph unicode="&#xa6;" glyph-name="brokenbar" horiz-adv-x="215" d="M125 0H90V283H125V0ZM125 466H90V750H125V466Z" />
<glyph unicode="&#xa7;" glyph-name="section" d="M50 375Q50 435 92 478T194 526Q150 553 128 578T105 646T140 722T224 755T314 720V667Q275 727 232 727T163 703T137 642Q137 618 148 606T164 587T182 572T199 560T218 549T233 540L261 525Q331 485 350 458Q376
421 376 369T334 272T231 222Q275 195 298 170T321 101T285 25T195 -8T105 29V84Q143 21 195 21Q234 21 261 44T288 106Q288 161 191 211L165 225Q82 268 60 319Q50 344 50 375ZM263 499T211 499T122 463T85 374T124 287T215 251T304 287T341 375T302 463Z" />
<glyph unicode="&#xa8;" glyph-name="dieresis" horiz-adv-x="192" d="M15 558T15 585T44 612T73 585T44 558ZM122 558T122 585T149 612T177 585T150 558Z" />
<glyph unicode="&#xa9;" glyph-name="copyright" horiz-adv-x="890" d="M452 -13H437Q282 -13 169 104T55 377T170 648T446 763T721 649T835 378T722 104T452 -13ZM802 523T698 628T446 734T193 629T88 376T193 122T445 16T697 122T802 375ZM453 140H438Q345 140
277 211T208 378T278 542T450 612T624 535V484Q593 530 546 557T446 584Q363 584 302 523T240 376T301 230T446 168Q498 168 545 195T624 269V217Q554 140 453 140Z" />
<glyph unicode="&#xab;" glyph-name="guillemotleft" horiz-adv-x="483" d="M70 240L288 433V390L104 227L288 63V18L70 214V240ZM245 240L463 433V390L279 227L463 63V18L245 214V240Z" />
<glyph unicode="&#xac;" glyph-name="logicalnot" horiz-adv-x="410" d="M329 188V282H50V313H360V188H329Z" />
<glyph unicode="&#xad;" glyph-name="uni00AD" horiz-adv-x="411" d="M361 282H50V313H361V282Z" />
<glyph unicode="&#xae;" glyph-name="registered" horiz-adv-x="890" d="M452 -13H437Q282 -13 169 104T55 377T170 648T446 763T721 649T835 378T722 104T452 -13ZM802 523T698 628T446 734T193 629T88 376T193 122T445 16T697 122T802 375ZM368 309V154H337V604H436Q497
604 540 561T584 461T553 364T473 312L589 154H548L438 309H368ZM368 577V336H438Q484 336 519 372T555 456T520 540T438 577H368Z" />
<glyph unicode="&#xaf;" glyph-name="overscore" horiz-adv-x="341" d="M272 566H75V594H272V566Z" />
<glyph unicode="&#xb0;" glyph-name="degree" horiz-adv-x="191" d="M97 600H93Q63 600 42 622T20 675T42 728T95 750T149 728T171 676T149 623T97 600ZM145 696T131 711T96 726T60 711T45 675T60 640T95 624T130 639T145 675Z" />
<glyph unicode="&#xb1;" glyph-name="plusminus" horiz-adv-x="451" d="M210 387H70V418H210V557H243V418H381V387H243V253H210V387ZM381 168H70V199H381V168Z" />
<glyph unicode="&#xb4;" glyph-name="acute" horiz-adv-x="211" d="M155 644H196L57 529H15L155 644Z" />
<glyph unicode="&#xb5;" glyph-name="mu" horiz-adv-x="555" d="M75 -200V450H108V188Q108 119 158 68T278 17T397 68T448 188V450H480V0H448V87Q421 43 375 16T276 -11T179 14T107 82V-200H75Z" />
<glyph unicode="&#xb6;" glyph-name="paragraph" horiz-adv-x="564" d="M271 -200H240V455H220Q159 455 117 498T75 602T118 706T223 750H534V721H444V-200H413V721H271V-200Z" />
<glyph unicode="&#xb7;" glyph-name="middot" horiz-adv-x="212" d="M75 261T75 292T106 323T137 292T106 261Z" />
<glyph unicode="&#xb8;" glyph-name="cedilla" horiz-adv-x="142" d="M15 -75V9H40V-49H50Q82 -49 104 -71T127 -123V-127Q127 -157 105 -178T50 -200H15V-175H50Q73 -175 88 -161T103 -125T88 -90T50 -75H15Z" />
<glyph unicode="&#xbb;" glyph-name="guillemotright" horiz-adv-x="483" d="M195 433L413 240V214L195 18V63L379 227L195 390V433ZM20 433L238 240V214L20 18V63L204 227L20 390V433Z" />
<glyph unicode="&#xbf;" glyph-name="questiondown" horiz-adv-x="626" d="M571 244Q565 133 495 63T314 -7T129 66T55 235T126 420Q195 488 294 494V659H326V465H312Q212 465 150 399T87 241T152 85T315 22T472 82T537 244H571ZM342 762T342 731T308 700T273
731T307 762Z" />
<glyph unicode="&#xc0;" glyph-name="Agrave" horiz-adv-x="809" d="M404 768L779 0H744L602 286H201L61 0H30L404 768ZM401 699L214 315H590L401 699ZM314 944H355L495 829H453L314 944Z" />
<glyph unicode="&#xc1;" glyph-name="Aacute" horiz-adv-x="809" d="M404 768L779 0H744L602 286H201L61 0H30L404 768ZM401 699L214 315H590L401 699ZM454 944H495L356 829H314L454 944Z" />
<glyph unicode="&#xc2;" glyph-name="Acircumflex" horiz-adv-x="809" d="M404 768L779 0H744L602 286H201L61 0H30L404 768ZM401 699L214 315H590L401 699ZM421 944L553 829H512L405 920L299 829H257L391 944H421Z" />
<glyph unicode="&#xc3;" glyph-name="Atilde" horiz-adv-x="809" d="M404 768L779 0H744L602 286H201L61 0H30L404 768ZM401 699L214 315H590L401 699ZM485 847Q456 847 407 874T327 902T265 848H234Q273 928 329 928H338Q368 928 413 902T485 875T544 924H575Q528
847 485 847Z" />
<glyph unicode="&#xc4;" glyph-name="Adieresis" horiz-adv-x="809" d="M404 768L779 0H744L602 286H201L61 0H30L404 768ZM401 699L214 315H590L401 699ZM323 858T323 885T352 912T381 885T352 858ZM430 858T430 885T457 912T485 885T458 858Z" />
<glyph unicode="&#xc5;" glyph-name="Aring" horiz-adv-x="809" d="M404 768L779 0H744L602 286H201L61 0H30L404 768ZM401 699L214 315H590L401 699ZM406 812H402Q372 812 351 834T329 887T351 940T404 962T458 940T480 888T458 835T406 812ZM454 908T440 923T405
938T369 923T354 887T369 852T404 836T439 851T454 887Z" />
<glyph unicode="&#xc6;" glyph-name="AE" horiz-adv-x="691" d="M666 750V721H430V316H627V287H430V29H666V0H397V286H196L56 0H25L397 750H666ZM397 315V692L209 315H397Z" />
<glyph unicode="&#xc7;" glyph-name="Ccedilla" horiz-adv-x="718" d="M417 -75V-10Q268 -2 162 113T55 382T170 650T445 765Q552 765 648 709V672Q554 736 445 736Q298 736 193 631T88 378T193 124T445 18Q554 18 648 82V45Q557 -11 450 -11H442V-49H452Q484
-49 506 -71T529 -123V-127Q529 -157 507 -178T452 -200H417V-175H452Q475 -175 490 -161T505 -125T490 -90T452 -75H417Z" />
<glyph unicode="&#xc8;" glyph-name="Egrave" horiz-adv-x="389" d="M85 750H354V721H118V313H315V284H118V29H354V0H85V750ZM131 944H172L312 829H270L131 944Z" />
<glyph unicode="&#xc9;" glyph-name="Eacute" horiz-adv-x="389" d="M85 750H354V721H118V313H315V284H118V29H354V0H85V750ZM270 944H311L172 829H130L270 944Z" />
<glyph unicode="&#xca;" glyph-name="Ecircumflex" horiz-adv-x="389" d="M85 750H354V721H118V313H315V284H118V29H354V0H85V750ZM238 944L370 829H329L222 920L116 829H74L208 944H238Z" />
<glyph unicode="&#xcb;" glyph-name="Edieresis" horiz-adv-x="389" d="M85 750H354V721H118V313H315V284H118V29H354V0H85V750ZM137 858T137 885T166 912T195 885T166 858ZM244 858T244 885T271 912T299 885T272 858Z" />
<glyph unicode="&#xcc;" glyph-name="Igrave" horiz-adv-x="213" d="M90 750H123V0H90V750ZM16 944H57L197 829H155L16 944Z" />
<glyph unicode="&#xcd;" glyph-name="Iacute" horiz-adv-x="213" d="M90 750H123V0H90V750ZM156 944H197L58 829H16L156 944Z" />
<glyph unicode="&#xce;" glyph-name="Icircumflex" horiz-adv-x="213" d="M90 750H123V0H90V750ZM123 944L255 829H214L107 920L1 829H-41L93 944H123Z" />
<glyph unicode="&#xcf;" glyph-name="Idieresis" horiz-adv-x="213" d="M90 750H123V0H90V750ZM25 858T25 885T54 912T83 885T54 858ZM132 858T132 885T159 912T187 885T160 858Z" />
<glyph unicode="&#xd0;" glyph-name="Eth" horiz-adv-x="526" d="M75 750H107Q275 750 378 640T481 375T379 110T107 0H75V361H15V390H75V750ZM115 720H107V390H231V361H107V31H115Q261 31 354 132T448 374T355 618T115 720Z" />
<glyph unicode="&#xd1;" glyph-name="Ntilde" horiz-adv-x="751" d="M637 750H666V-11L114 668V0H85V761L637 83V750ZM456 847Q427 847 378 874T298 902T236 848H205Q244 928 300 928H309Q339 928 384 902T456 875T515 924H546Q499 847 456 847Z" />
<glyph unicode="&#xd2;" glyph-name="Ograve" horiz-adv-x="890" d="M282 -13T169 104T55 377T170 648T446 763T721 649T835 378T722 104T452 -13H437Q282 -13 169 104ZM802 523T698 628T446 734T193 629T88 376T193 122T445 16T697 122T802 375ZM354 944H395L535
829H493L354 944Z" />
<glyph unicode="&#xd3;" glyph-name="Oacute" horiz-adv-x="890" d="M282 -13T169 104T55 377T170 648T446 763T721 649T835 378T722 104T452 -13H437Q282 -13 169 104ZM802 523T698 628T446 734T193 629T88 376T193 122T445 16T697 122T802 375ZM494 944H535L396
829H354L494 944Z" />
<glyph unicode="&#xd4;" glyph-name="Ocircumflex" horiz-adv-x="890" d="M282 -13T169 104T55 377T170 648T446 763T721 649T835 378T722 104T452 -13H437Q282 -13 169 104ZM802 523T698 628T446 734T193 629T88 376T193 122T445 16T697 122T802 375ZM461 944L593
829H552L445 920L339 829H297L431 944H461Z" />
<glyph unicode="&#xd5;" glyph-name="Otilde" horiz-adv-x="890" d="M282 -13T169 104T55 377T170 648T446 763T721 649T835 378T722 104T452 -13H437Q282 -13 169 104ZM802 523T698 628T446 734T193 629T88 376T193 122T445 16T697 122T802 375ZM525 847Q496
847 447 874T367 902T305 848H274Q313 928 369 928H378Q408 928 453 902T525 875T584 924H615Q568 847 525 847Z" />
<glyph unicode="&#xd6;" glyph-name="Odieresis" horiz-adv-x="890" d="M282 -13T169 104T55 377T170 648T446 763T721 649T835 378T722 104T452 -13H437Q282 -13 169 104ZM802 523T698 628T446 734T193 629T88 376T193 122T445 16T697 122T802 375ZM364 858T364
885T393 912T422 885T393 858ZM471 858T471 885T498 912T526 885T499 858Z" />
<glyph unicode="&#xd7;" glyph-name="multiply" horiz-adv-x="393" d="M174 405L75 504L97 526L196 427L294 525L318 502L219 403L317 306L295 284L197 381L103 287L79 310L174 405Z" />
<glyph unicode="&#xd8;" glyph-name="Oslash" horiz-adv-x="880" d="M830 375Q830 220 717 104T447 -13H432Q316 -13 221 54L181 0H144L198 72Q129 128 90 207T50 375Q50 534 165 648T440 763Q561 763 661 694L701 748H740L685 675Q753 620 791 542T830 375ZM440
734Q293 734 188 629T83 375Q83 292 118 220T216 96L643 670Q549 734 440 734ZM797 375Q797 457 763 528T667 651L239 79Q332 16 440 16Q587 16 692 122T797 375Z" />
<glyph unicode="&#xd9;" glyph-name="Ugrave" horiz-adv-x="617" d="M314 -14H304Q212 -14 149 50T85 211V750H118V212Q118 127 173 71T309 15T444 70T499 212V750H532V213Q532 115 469 51T314 -14ZM218 944H259L399 829H357L218 944Z" />
<glyph unicode="&#xda;" glyph-name="Uacute" horiz-adv-x="617" d="M314 -14H304Q212 -14 149 50T85 211V750H118V212Q118 127 173 71T309 15T444 70T499 212V750H532V213Q532 115 469 51T314 -14ZM358 944H399L260 829H218L358 944Z" />
<glyph unicode="&#xdb;" glyph-name="Ucircumflex" horiz-adv-x="617" d="M314 -14H304Q212 -14 149 50T85 211V750H118V212Q118 127 173 71T309 15T444 70T499 212V750H532V213Q532 115 469 51T314 -14ZM324 944L456 829H415L308 920L202 829H160L294 944H324Z" />
<glyph unicode="&#xdc;" glyph-name="Udieresis" horiz-adv-x="617" d="M314 -14H304Q212 -14 149 50T85 211V750H118V212Q118 127 173 71T309 15T444 70T499 212V750H532V213Q532 115 469 51T314 -14ZM227 858T227 885T256 912T285 885T256 858ZM334 858T334
885T361 912T389 885T362 858Z" />
<glyph unicode="&#xdd;" glyph-name="Yacute" horiz-adv-x="544" d="M291 0H258V300L30 750H66L277 335L484 750H514L291 300V0ZM321 944H362L223 829H181L321 944Z" />
<glyph unicode="&#xde;" glyph-name="Thorn" horiz-adv-x="410" d="M75 0V749H107V631H116Q213 631 286 560T360 391T284 224T116 153H107V0H75ZM107 602V182H116Q200 182 264 243T328 390T264 539T116 602H107Z" />
<glyph unicode="&#xdf;" glyph-name="germandbls" horiz-adv-x="572" d="M276 707T317 666T359 564T303 456Q399 452 465 385T532 223T463 59T297 -10Q250 -10 202 10V44Q248 19 297 19Q380 19 441 79T502 223T442 367T297 427H216V456Q261 456 294 489T327 567T294
645T217 678T140 645T107 567V0H75V567Q75 625 116 666T217 707Z" />
<glyph unicode="&#xe0;" glyph-name="agrave" horiz-adv-x="589" d="M519 450V0H487V112Q459 55 403 22T283 -11Q185 -11 115 58T45 225T115 391T283 461Q347 461 405 427T487 337V450H519ZM77 140T138 79T284 17T429 78T489 224T429 371T284 433T139 371T77 224ZM204
644H245L385 529H343L204 644Z" />
<glyph unicode="&#xe1;" glyph-name="aacute" horiz-adv-x="589" d="M519 450V0H487V112Q459 55 403 22T283 -11Q185 -11 115 58T45 225T115 391T283 461Q347 461 405 427T487 337V450H519ZM77 140T138 79T284 17T429 78T489 224T429 371T284 433T139 371T77 224ZM344
644H385L246 529H204L344 644Z" />
<glyph unicode="&#xe2;" glyph-name="acircumflex" horiz-adv-x="589" d="M519 450V0H487V112Q459 55 403 22T283 -11Q185 -11 115 58T45 225T115 391T283 461Q347 461 405 427T487 337V450H519ZM77 140T138 79T284 17T429 78T489 224T429 371T284 433T139 371T77
224ZM310 644L442 529H401L294 620L188 529H146L280 644H310Z" />
<glyph unicode="&#xe3;" glyph-name="atilde" horiz-adv-x="589" d="M519 450V0H487V112Q459 55 403 22T283 -11Q185 -11 115 58T45 225T115 391T283 461Q347 461 405 427T487 337V450H519ZM77 140T138 79T284 17T429 78T489 224T429 371T284 433T139 371T77 224ZM375
547Q346 547 297 574T217 602T155 548H124Q163 628 219 628H228Q258 628 303 602T375 575T434 624H465Q418 547 375 547Z" />
<glyph unicode="&#xe4;" glyph-name="adieresis" horiz-adv-x="589" d="M519 450V0H487V112Q459 55 403 22T283 -11Q185 -11 115 58T45 225T115 391T283 461Q347 461 405 427T487 337V450H519ZM77 140T138 79T284 17T429 78T489 224T429 371T284 433T139 371T77
224ZM213 558T213 585T242 612T271 585T242 558ZM320 558T320 585T347 612T375 585T348 558Z" />
<glyph unicode="&#xe5;" glyph-name="aring" horiz-adv-x="589" d="M519 450V0H487V112Q459 55 403 22T283 -11Q185 -11 115 58T45 225T115 391T283 461Q347 461 405 427T487 337V450H519ZM77 140T138 79T284 17T429 78T489 224T429 371T284 433T139 371T77 224ZM296
512H292Q262 512 241 534T219 587T241 640T294 662T348 640T370 588T348 535T296 512ZM344 608T330 623T295 638T259 623T244 587T259 552T294 536T329 551T344 587Z" />
<glyph unicode="&#xe6;" glyph-name="ae" horiz-adv-x="932" d="M722 -11H707Q645 -11 592 23T508 112V0H482V105Q450 51 395 20T278 -11Q180 -11 110 58T40 225T110 391T278 461Q340 461 395 430T482 345V450H508V339Q539 394 594 427T715 461Q823 461 897 379L583
69Q648 17 708 17T815 44T894 118V67Q823 -11 722 -11ZM72 140T133 79T279 17T424 78T484 224T424 371T279 433T134 371T72 224ZM631 433T570 372T508 231T562 90L853 379Q791 433 711 433Z" />
<glyph unicode="&#xe7;" glyph-name="ccedilla" horiz-adv-x="496" d="M239 -75V-9Q156 5 101 73T45 230T115 389T287 459T461 382V331Q430 377 383 404T283 431Q200 431 139 370T77 223T138 77T283 15Q335 15 382 42T461 116V64Q391 -13 288 -13H279Q267 -13
264 -12V-49H274Q306 -49 328 -71T351 -123V-127Q351 -157 329 -178T274 -200H239V-175H274Q297 -175 312 -161T327 -125T312 -90T274 -75H239Z" />
<glyph unicode="&#xe8;" glyph-name="egrave" horiz-adv-x="515" d="M295 -12H286Q191 -12 121 59T50 226T120 390T293 460T470 378L156 68Q221 16 281 16T388 43T467 117V66Q396 -12 295 -12ZM205 432T144 371T82 229T135 89L426 378Q364 432 285 432ZM167 644H208L348
529H306L167 644Z" />
<glyph unicode="&#xe9;" glyph-name="eacute" horiz-adv-x="515" d="M295 -12H286Q191 -12 121 59T50 226T120 390T293 460T470 378L156 68Q221 16 281 16T388 43T467 117V66Q396 -12 295 -12ZM205 432T144 371T82 229T135 89L426 378Q364 432 285 432ZM307 644H348L209
529H167L307 644Z" />
<glyph unicode="&#xea;" glyph-name="ecircumflex" horiz-adv-x="515" d="M295 -12H286Q191 -12 121 59T50 226T120 390T293 460T470 378L156 68Q221 16 281 16T388 43T467 117V66Q396 -12 295 -12ZM205 432T144 371T82 229T135 89L426 378Q364 432 285 432ZM273
644L405 529H364L257 620L151 529H109L243 644H273Z" />
<glyph unicode="&#xeb;" glyph-name="edieresis" horiz-adv-x="515" d="M295 -12H286Q191 -12 121 59T50 226T120 390T293 460T470 378L156 68Q221 16 281 16T388 43T467 117V66Q396 -12 295 -12ZM205 432T144 371T82 229T135 89L426 378Q364 432 285 432ZM176
558T176 585T205 612T234 585T205 558ZM283 558T283 585T310 612T338 585T311 558Z" />
<glyph unicode="&#xec;" glyph-name="igrave" horiz-adv-x="198" d="M115 449V0H83V449H115ZM9 644H50L190 529H148L9 644Z" />
<glyph unicode="&#xed;" glyph-name="iacute" horiz-adv-x="198" d="M115 449V0H83V449H115ZM149 644H190L51 529H9L149 644Z" />
<glyph unicode="&#xee;" glyph-name="icircumflex" horiz-adv-x="198" d="M115 449V0H83V449H115ZM115 644L247 529H206L99 620L-7 529H-49L85 644H115Z" />
<glyph unicode="&#xef;" glyph-name="idieresis" horiz-adv-x="198" d="M115 449V0H83V449H115ZM18 558T18 585T47 612T76 585T47 558ZM125 558T125 585T152 612T180 585T153 558Z" />
<glyph unicode="&#xf0;" glyph-name="eth" horiz-adv-x="571" d="M531 304V228Q531 133 463 60T301 -13H286Q190 -13 123 58T55 224T124 389T293 459Q357 459 414 425T500 331V340Q500 497 292 580L107 504V533L254 595L107 656V685L290 610L460 682V651L327 595Q376
574 407 555T470 502Q531 437 531 304ZM87 138T147 77T291 15T437 76T499 222T438 368T292 431T148 369T87 223Z" />
<glyph unicode="&#xf1;" glyph-name="ntilde" horiz-adv-x="544" d="M102 0H70V450H102V359Q153 461 276 461Q360 461 417 403T474 262V0H442V262Q442 331 394 382T276 433T155 382T102 262V0ZM352 547Q323 547 274 574T194 602T132 548H101Q140 628 196 628H205Q235
628 280 602T352 575T411 624H442Q395 547 352 547Z" />
<glyph unicode="&#xf2;" glyph-name="ograve" horiz-adv-x="566" d="M183 -11T114 60T45 227T115 391T283 461T451 392T521 227T453 60T288 -11H279Q183 -11 114 60ZM489 309T429 371T284 433T139 371T77 224T138 79T284 17T429 78T489 224ZM192 644H233L373 529H331L192
644Z" />
<glyph unicode="&#xf3;" glyph-name="oacute" horiz-adv-x="566" d="M183 -11T114 60T45 227T115 391T283 461T451 392T521 227T453 60T288 -11H279Q183 -11 114 60ZM489 309T429 371T284 433T139 371T77 224T138 79T284 17T429 78T489 224ZM332 644H373L234 529H192L332
644Z" />
<glyph unicode="&#xf4;" glyph-name="ocircumflex" horiz-adv-x="566" d="M183 -11T114 60T45 227T115 391T283 461T451 392T521 227T453 60T288 -11H279Q183 -11 114 60ZM489 309T429 371T284 433T139 371T77 224T138 79T284 17T429 78T489 224ZM299 644L431
529H390L283 620L177 529H135L269 644H299Z" />
<glyph unicode="&#xf5;" glyph-name="otilde" horiz-adv-x="566" d="M183 -11T114 60T45 227T115 391T283 461T451 392T521 227T453 60T288 -11H279Q183 -11 114 60ZM489 309T429 371T284 433T139 371T77 224T138 79T284 17T429 78T489 224ZM363 547Q334 547 285
574T205 602T143 548H112Q151 628 207 628H216Q246 628 291 602T363 575T422 624H453Q406 547 363 547Z" />
<glyph unicode="&#xf6;" glyph-name="odieresis" horiz-adv-x="566" d="M183 -11T114 60T45 227T115 391T283 461T451 392T521 227T453 60T288 -11H279Q183 -11 114 60ZM489 309T429 371T284 433T139 371T77 224T138 79T284 17T429 78T489 224ZM202 558T202 585T231
612T260 585T231 558ZM309 558T309 585T336 612T364 585T337 558Z" />
<glyph unicode="&#xf7;" glyph-name="divide" horiz-adv-x="461" d="M386 387H75V418H386V387ZM199 255T199 286T233 317T268 286T234 255ZM199 495T199 526T233 557T268 526T234 495Z" />
<glyph unicode="&#xf8;" glyph-name="oslash" horiz-adv-x="556" d="M432 404Q516 332 516 232T449 60T285 -11H270Q202 -11 149 26L130 0H93L126 44Q40 115 40 218T110 391T278 461Q349 461 408 423L428 450H467L432 404ZM278 433Q195 433 134 371T72 220T144
68L390 399Q338 433 278 433ZM364 17T424 78T484 228T414 380L168 50Q218 17 278 17Q364 17 424 78Z" />
<glyph unicode="&#xf9;" glyph-name="ugrave" horiz-adv-x="524" d="M432 450H464V0H432V91Q381 -11 258 -11Q174 -11 117 47T60 188V450H92V188Q92 119 140 68T258 17T379 68T432 188V450ZM171 644H212L352 529H310L171 644Z" />
<glyph unicode="&#xfa;" glyph-name="uacute" horiz-adv-x="524" d="M432 450H464V0H432V91Q381 -11 258 -11Q174 -11 117 47T60 188V450H92V188Q92 119 140 68T258 17T379 68T432 188V450ZM311 644H352L213 529H171L311 644Z" />
<glyph unicode="&#xfb;" glyph-name="ucircumflex" horiz-adv-x="524" d="M432 450H464V0H432V91Q381 -11 258 -11Q174 -11 117 47T60 188V450H92V188Q92 119 140 68T258 17T379 68T432 188V450ZM278 644L410 529H369L262 620L156 529H114L248 644H278Z" />
<glyph unicode="&#xfc;" glyph-name="udieresis" horiz-adv-x="524" d="M432 450H464V0H432V91Q381 -11 258 -11Q174 -11 117 47T60 188V450H92V188Q92 119 140 68T258 17T379 68T432 188V450ZM181 558T181 585T210 612T239 585T210 558ZM288 558T288 585T315
612T343 585T316 558Z" />
<glyph unicode="&#xfd;" glyph-name="yacute" horiz-adv-x="524" d="M432 450H464V14Q464 -75 402 -137T250 -199Q142 -199 79 -116L81 -66Q109 -114 154 -142T250 -171Q324 -171 378 -118T432 11V87Q383 -11 261 -11Q178 -11 119 47T60 188V450H92V188Q92 119
142 68T262 17T381 68T432 188V450ZM311 644H352L213 529H171L311 644Z" />
<glyph unicode="&#xfe;" glyph-name="thorn" horiz-adv-x="589" d="M75 -200V629H107V345Q140 398 195 429T311 460Q410 460 479 391T549 224T480 58T311 -12Q250 -12 195 19T107 103V-200H75ZM517 309T457 370T313 432T167 371T105 224T166 78T312 16T457 77T517 224Z" />
<glyph unicode="&#xff;" glyph-name="ydieresis" horiz-adv-x="524" d="M432 450H464V14Q464 -75 402 -137T250 -199Q142 -199 79 -116L81 -66Q109 -114 154 -142T250 -171Q324 -171 378 -118T432 11V87Q383 -11 261 -11Q178 -11 119 47T60 188V450H92V188Q92
119 142 68T262 17T381 68T432 188V450ZM181 558T181 585T210 612T239 585T210 558ZM288 558T288 585T315 612T343 585T316 558Z" />
<glyph unicode="&#x2013;" glyph-name="endash" horiz-adv-x="408" d="M358 282H50V313H358V282Z" />
<glyph unicode="&#x2014;" glyph-name="emdash" horiz-adv-x="494" d="M479 282H15V313H479V282Z" />
<glyph unicode="&#x2018;" glyph-name="quoteleft" horiz-adv-x="220" d="M136 685V567H100V685Q100 732 126 765T195 812V777Q136 750 136 685Z" />
<glyph unicode="&#x2019;" glyph-name="quoteright" horiz-adv-x="220" d="M84 695V810H120V695Q120 648 94 615T25 568V603Q84 630 84 695Z" />
<glyph unicode="&#x201a;" glyph-name="quotesinglbase" horiz-adv-x="205" d="M79 -72V32H115V-72Q115 -119 89 -152T20 -199V-164Q79 -137 79 -72Z" />
<glyph unicode="&#x201c;" glyph-name="quotedblleft" horiz-adv-x="344" d="M136 685V567H100V685Q100 732 126 765T195 812V777Q136 750 136 685ZM260 685V567H224V685Q224 732 250 765T319 812V777Q260 750 260 685Z" />
<glyph unicode="&#x201d;" glyph-name="quotedblright" horiz-adv-x="344" d="M208 694V810H244V694Q244 647 218 614T149 567V602Q208 629 208 694ZM84 694V810H120V694Q120 647 94 614T25 567V602Q84 629 84 694Z" />
<glyph unicode="&#x201e;" glyph-name="quotedblbase" horiz-adv-x="329" d="M203 -73V30H239V-73Q239 -120 213 -153T144 -200V-165Q203 -138 203 -73ZM79 -73V30H115V-73Q115 -120 89 -153T20 -200V-165Q79 -138 79 -73Z" />
<glyph unicode="&#x2022;" glyph-name="bullet" horiz-adv-x="315" d="M110 239T110 286T157 333T205 286Q205 264 192 252T157 239Q110 239 110 286Z" />
<glyph unicode="&#x2039;" glyph-name="guilsinglleft" horiz-adv-x="313" d="M75 240L293 433V390L109 227L293 63V18L75 214V240Z" />
<glyph unicode="&#x203a;" glyph-name="guilsinglright" horiz-adv-x="313" d="M20 433L238 240V214L20 18V63L204 227L20 390V433Z" />
</font>
</defs>
</svg>
